<svg id="file" xmlns="http://www.w3.org/2000/svg" width="28.761" height="36.779" viewBox="0 0 28.761 36.779">
  <path id="Trazado_194" data-name="Trazado 194" d="M19.22,0H4.145A4.163,4.163,0,0,0,0,4.135V32.644a4.163,4.163,0,0,0,4.145,4.135H24.607a4.163,4.163,0,0,0,4.144-4.135V10Zm0,0"/>
  <path id="Trazado_195" data-name="Trazado 195" d="M335.27.488l9.494,9.979h-6.32a3.171,3.171,0,0,1-3.174-3.174Zm0,0" transform="translate(-316.002 -0.46)" fill="#57e28f"/>
  <g id="Grupo_69" data-name="Grupo 69" transform="translate(5.76 11.92)">
    <path id="Trazado_196" data-name="Trazado 196" d="M116.525,511.676H101.16a.934.934,0,0,0,0,1.867h15.375a.934.934,0,1,0-.009-1.867Zm0,0" transform="translate(-100.227 -494.191)" fill="#fff"/>
    <path id="Trazado_197" data-name="Trazado 197" d="M144.621,221.563a.926.926,0,0,0,1.363,0l5.461-5.872a.931.931,0,0,0-1.363-1.269l-3.846,4.135V208.363a.934.934,0,1,0-1.867,0v10.194l-3.846-4.135a.931.931,0,0,0-1.363,1.269Zm0,0" transform="translate(-136.686 -207.43)" fill="#fff"/>
  </g>
</svg>
