<svg xmlns="http://www.w3.org/2000/svg" width="36.708" height="25.233" viewBox="0 0 36.708 25.233">
  <g id="mexico" transform="translate(0 -77.589)">
    <rect id="Rectángulo_129" data-name="Rectángulo 129" width="12.611" height="25.222" transform="translate(12.019 77.6)" fill="#fff"/>
    <path id="Trazado_172" data-name="Trazado 172" d="M12.019,77.6H2.991C1.037,77.6,0,77.337,0,79.35v21.177c0,2.013.725,2.294,2.679,2.294h9.4V77.6Z" transform="translate(0 0)" fill="#006847"/>
    <path id="Trazado_173" data-name="Trazado 173" d="M343.453,77.6H333.6v25.222h9.612c1.954,0,2.427-.309,2.407-2.645V80.3C345.619,78.291,345.407,77.6,343.453,77.6Z" transform="translate(-308.911 0)" fill="#ce1126"/>
    <path id="SVGCleanerId_0" d="M180.248,238.7h0v-.059a.207.207,0,0,0-.059.118v.118a.59.59,0,0,0-.059-.237l-.118-.237h0a1.1,1.1,0,0,0-.178.237,1.008,1.008,0,0,0-.059.414,1,1,0,0,0-.118-.3c-.118-.178-.178-.118-.178-.118h0s.118.118.059.237c0,.118-.059.355,0,.474a.817.817,0,0,0,.178.237v.237h0v.059l-.178-.118V239.7a.127.127,0,0,0-.118-.118c-.059,0-.118.118-.118.178a.127.127,0,0,0,.118.118h.059l.178.178a.207.207,0,0,1-.059.118h-.059a2.359,2.359,0,0,0-.178.237v-.237h0l-.355.178c-.178.178-.3.355-.237.474,0,.118.118.3.118.474v.3h0a.058.058,0,0,1-.059.059l-.237-.237.059-.059a.118.118,0,1,0-.118.118h0l.178.3c-.059.059-.059.059-.118.059a.934.934,0,0,0-.237.059,1.1,1.1,0,0,0-.237.178.259.259,0,0,0,.059-.178.346.346,0,0,0-.059-.237h0v.178a.058.058,0,0,1-.059.059c-.059.118-.474.355-.533.533s0,.178-.059.237c-.059.118-.118.178-.118.237l-.059.059a.058.058,0,0,0-.059.059l-.059-.237.059-.059a.118.118,0,1,0-.118.118h0v.3l-.059.059c0,.059-.059.059-.059.118h0c-.059,0-.118-.059-.178-.059h-.178a.207.207,0,0,1,.118-.059l.059-.059h0a1.2,1.2,0,0,0-.3-.059.564.564,0,0,0-.414.118c-.118.059-.178.237-.355.3a2.791,2.791,0,0,1-.3.118h-.059c-.118,0-.178-.059-.3-.059h-.237v-.118h-.414a.058.058,0,0,0-.059.059v.118c-.059,0-.118-.059-.237-.059a2.1,2.1,0,0,0-.414.059h-.059c-.118-.059-.118-.178-.178-.178s0,.178-.059.178-.178-.3-.355-.355c-.118,0-.178,0-.178.059s.178.237.118.237-.237-.3-.414-.3c-.118,0-.178.059-.118.059,0,.059.178.059.118.178s-.178-.178-.3-.118H172.2l-.059-.355a.058.058,0,0,0,.059-.059l.059-.059v-.059h-.118v-.059l-.059-.059a.058.058,0,0,0-.059.059v.118h-.059v.059h0c0,.059,0,.059.059.059h.118v.237l-.118-.118h0a.442.442,0,0,1-.178-.178c-.059-.118,0-.3-.059-.3s-.059.178-.118.118,0-.3-.059-.414-.178-.237-.237-.178,0,.3-.118.237c-.059-.059,0-.3,0-.414s-.059-.178-.118-.178,0,.237-.059.237-.059-.118-.118-.178h-.059s0-.118-.059-.118v.237a.207.207,0,0,0-.118-.059v-.3h.059l.059-.059h0a.058.058,0,0,0-.059-.059h-.059v-.118l-.059-.059a.058.058,0,0,0-.059.059v.118h-.059l-.059.059h0c0,.059,0,.059.059.059h.059v.237l-.178-.178a.612.612,0,0,1-.059-.237,2.686,2.686,0,0,1,.118-.474c-.059-.059-.118.178-.178.118s.059-.3,0-.414-.059-.178-.118-.178c-.118,0-.118.3-.178.3-.059-.059,0-.178,0-.3-.237-.237-.237-.237-.3-.237s-.059.178-.118.178l-.118-.118v-.237l.118-.3h.118l.059-.059V239.7l-.059-.059h0l.059-.059h0v-.118h0c-.059,0-.059,0-.118.059v.059h-.059a.058.058,0,0,0-.059.059v.059c0,.059,0,.059.059.118l-.118.178a.534.534,0,0,1-.059-.3c0-.118.059-.118.059-.178s-.059.059-.059-.059c0-.059.3-.237.237-.3s-.3.118-.237,0,.3-.118.3-.355c0-.118-.237.059-.237,0s.118-.178.118-.3c0-.059.059-.118,0-.118h-.059c-.118.059-.059.118-.178.118,0,0-.059-.118-.059-.059-.059,0-.118.118-.118.178v.237c-.059.059-.059-.118-.178-.118-.059,0-.118.118-.118.178s.178.237.118.3-.178-.178-.3-.059c-.059.118.237.3.3.3s0,.059.059.118.118.118.178.118a.452.452,0,0,1,.118.3l-.237-.118v-.118l-.059-.059H169l-.059.059-.059-.059h-.059a.058.058,0,0,0-.059.059h0c0,.059,0,.059.059.118h.059v.059a.058.058,0,0,0,.059.059H169c.059,0,.059,0,.118-.059l.3.237v.178h0v.059c-.059,0-.118-.059-.118,0s.118.118.059.178c0,0-.237-.059-.237,0s0,.178.118.178c.118.059.414.118.355.118-.059.059-.355-.178-.355,0s.118.237.178.237.355,0,.355.059-.237,0-.237.059c0,.118.178.118.178.118a.356.356,0,0,1,.237.059l.3.3h-.178c0-.059,0-.059-.059-.118l-.059-.059h-.059v.059h0v.059h-.118a.207.207,0,0,0,.118.059h0v.059l.059.059h0a.127.127,0,0,0,.118-.118h.3a.733.733,0,0,1,.178.118h-.178c0,.059.474.237.3.3-.118.059-.3-.118-.3,0-.059.118.118.237.178.237.059.059.474,0,.414.118s-.355-.059-.414.059a.38.38,0,0,0,.3.3c.118,0,.237-.178.3-.059s-.059.118,0,.178c.118,0,.178-.118.3-.059a.675.675,0,0,1,.355.178h-.237a.058.058,0,0,0-.059-.059l-.059-.059h-.059v.118h-.059l-.059.059a.058.058,0,0,0,.059.059h.118v.059h.059a.058.058,0,0,0,.059-.059v-.118h.3l.118.118a.292.292,0,0,0-.178.059c-.059,0-.118.118-.118.118v.059h.118l.059-.059a.058.058,0,0,0,.059.059c.059,0,.178-.118.3-.059s-.178.118-.118.237.237.059.3,0c.059,0,.178-.237.3-.118.059.118-.178.178-.118.3s.178.059.3.059c.059-.059.237-.3.3-.237.059.118-.118.178-.118.3.059.059.178,0,.237-.059s.118-.178.237-.237l.118-.059h0a.207.207,0,0,1,.118-.059.452.452,0,0,1,.3-.118c.059,0,.118,0,.118.059-.118.059-.3.118-.414.178a.817.817,0,0,0-.237.178h0a.148.148,0,0,0,.237,0,1.022,1.022,0,0,0,.237-.178.625.625,0,0,1,.3-.118v.118c0,.059-.118.059-.3.237a1.016,1.016,0,0,0-.237.355.207.207,0,0,1,.118-.059.207.207,0,0,0,.118-.059h.059c.059,0,.059.059.118.059l.059.059a.058.058,0,0,0,.059.059.442.442,0,0,1,.178-.178l.118-.118c0,.059.059.059.118.118s.178.059.237.118a.183.183,0,0,0,.118.059l.059-.059.059-.059h0l.059-.059h.178c.118,0,.118.059.118.059a2.362,2.362,0,0,0-.178-.237,1.971,1.971,0,0,0-.355-.178l-.118-.118h0v-.059a1,1,0,0,1,.3.118q.178.089.178.178a.207.207,0,0,0,.118.059c.059,0,.118-.059.059-.059h0a.654.654,0,0,0-.3-.237,2.328,2.328,0,0,0-.355-.118v-.059a1.471,1.471,0,0,1,.474.059l.355.178a1.047,1.047,0,0,0,.474.3c.237,0,.71-.3.829-.3a.59.59,0,0,1,.237-.059h0a.259.259,0,0,0-.178-.059.058.058,0,0,1-.059-.059h-.178s.118-.118.178-.118a.852.852,0,0,1,.178-.118h0l.118-.118.3.178h0v.059h0l.059.059h.059c.059,0,.059-.059.059-.118v-.059l-.059-.059h-.059l-.178-.178a.218.218,0,0,1,.178-.059,2.943,2.943,0,0,0,.947-.118.514.514,0,0,0,.237-.533.207.207,0,0,1,.059-.118h-.118a.207.207,0,0,0-.118.059.292.292,0,0,1,.059-.178v-.118h0c.059,0,.059,0,.118-.059l.237.059a.118.118,0,1,0,.118-.118c-.059,0-.059,0-.118.059l-.178-.059c0-.059.059-.059.118-.118a.207.207,0,0,1,.118-.059.585.585,0,0,0,.355-.118c.237-.118.355-.474.414-.651a.666.666,0,0,1,.237-.3h0s-.118-.059-.355.178v-.533h0v-.059l.355-.118.059.059a.118.118,0,1,0-.118-.118h-.3v-.059c0-.059.118-.118.178-.237.118-.118.414-.237.414-.533h0C180.425,238.814,180.307,238.755,180.248,238.7Zm-8.289,3.908Zm2.9,1.007Zm2.309-.355Zm1.6-1.362Z" transform="translate(-156.21 -148.9)" fill="#006847"/>
    <g id="Grupo_65" data-name="Grupo 65" transform="translate(13.203 85.001)">
      <path id="Trazado_182" data-name="Trazado 182" d="M178.4,264Z" transform="translate(-178.4 -257.606)" fill="#006847"/>
      <path id="Trazado_183" data-name="Trazado 183" d="M190.459,182.336l.118.178-.059.059h.059v.059h-.059v-.059l-.118.118h.059v.059l.059.059h.118a.218.218,0,0,0,.059.178q.089.178.178.178c0,.059-.059.118-.059.237v.059h-.059a.058.058,0,0,0,.059.059h0a1.238,1.238,0,0,0,.237.355h-.118a.207.207,0,0,0,.118.059h.059a1.294,1.294,0,0,1,.3.178v.059l-.059.059h0s.118,0,.118-.059v-.059a.644.644,0,0,0,.3.059h0c0,.059.059.118.118.237h0c-.059,0-.118.118-.118.118s.118,0,.118-.059h.059a2.889,2.889,0,0,0,.414.178v.059a.207.207,0,0,1,.118-.059h0a.207.207,0,0,1-.059.118.183.183,0,0,0,.118-.059.058.058,0,0,1,.059-.059h.178a.765.765,0,0,0,.474-.118c0,.118.059.178.118.3.059.059.118.059.178.118V185h0a.058.058,0,0,0,.059-.059h.059a2.094,2.094,0,0,0,.355.059.207.207,0,0,1-.059.118.183.183,0,0,0,.118-.059h.3a.207.207,0,0,1-.059.118.058.058,0,0,0,.059-.059l.059-.059v.118a.207.207,0,0,0,.059-.118V185h0c.118-.059.178-.059.237-.118v.474h-.77c-.059-.059-.059-.059-.118-.059h0a.207.207,0,0,0-.118.059.218.218,0,0,0-.059.178H193.6c-.059,0-.118-.059-.178-.059a.817.817,0,0,1-.178-.237.058.058,0,0,0-.059-.059c.059-.059.059-.059.059-.118a.178.178,0,1,0-.355,0c0,.118.059.178.118.178v.118h-.118a3.739,3.739,0,0,1-.533-.237c-.118-.059-.178-.118-.237-.118a.058.058,0,0,1-.059-.059h0c-.059-.118-.474-.237-.474-.118-.059.118.118.355.3.355h.178c.059,0,.178.118.3.178.059.059.118.059.118.118l.059.059h0v.059a.058.058,0,0,0-.059.059h-.059c-.059-.059-.059-.059-.118-.059a.178.178,0,1,0,.178.178h0a1.471,1.471,0,0,1,.474.059c.118,0,.178.059.237.059a.058.058,0,0,1,.059.059v.059h0v.059a.207.207,0,0,1-.118.059h-.237c-.118.059-.237.178-.178.237a.363.363,0,0,0,.355.059c.059-.059.118-.059.178-.118h.474c0,.059.059.059.059.118.059.059.059.059.118.059h.059c.059.059.118.118.178.118a.183.183,0,0,1,.118.059c.118,0,.355.059.592.059h.77c.118,0,.178-.059.237-.178a.058.058,0,0,0,.059-.059l.059-.059a.452.452,0,0,1,.3-.118.88.88,0,0,1,.355-.059h.059c.059.059.118.118.178.118a.178.178,0,1,0,0-.355c-.059,0-.178.059-.178.118a.058.058,0,0,1-.059-.059l-.059-.059v-.059h0l.059-.059a.635.635,0,0,1,.355-.118c.059,0,.118-.059.178-.059h0c.118.118.237,0,.3-.059s.178-.118.118-.237a.356.356,0,0,0-.237-.059c-.059,0-.118.059-.178.118a.448.448,0,0,0-.237.059,1.584,1.584,0,0,1-.651.118h-.178v-.059c0-.059-.059-.118-.059-.178l-.059-.059h-.059c-.059,0-.059,0-.118.059a.058.058,0,0,0-.059.059h0l-.059-.059a.058.058,0,0,1,.059-.059.207.207,0,0,1,.118-.059.058.058,0,0,0,.059-.059h.059l.178-.059h.118a.356.356,0,0,0,.237-.059c.059,0,.118.059.237.118h.059a.209.209,0,0,0,.178.178l-.059-.118h0a1.008,1.008,0,0,0,.414.059h0c.118,0,.237-.059.355-.059a.058.058,0,0,0,.059.059h.118a.207.207,0,0,0-.118-.059l-.059-.059h0l.059.059h.118s-.118,0-.118-.059h0a.058.058,0,0,0,.059-.059c.059-.059.118-.059.178-.118l.059-.059.059-.059h.059a.207.207,0,0,0,.118-.059h-.118v-.3c.059,0,.059-.059.118-.059.059-.059.118-.118.118-.178h.118v-.059h0v-.059h-.059v-.059h.059l.118-.178h.059c.059,0,.059,0,.118-.059v-.059c0-.059,0-.059-.059-.118h-.059c-.059,0-.059,0-.118.059v.118l-.178.118h-.059v-.059h0l-.118-.059v.059h-.059l-.059.059h0v.059h.059c-.059,0-.118.059-.178.118l-.118.118c-.059,0-.059-.059-.118-.059s-.059-.059-.118-.059h-.059l.059-.118a.183.183,0,0,0-.118.059v.059c-.059,0-.059.059-.118.059-.059.059-.118.059-.178.118h0v-.118l-.059.059v.118h0l-.178.178-.059.059h-.237v-.059h0v-.237s.118,0,.118.059c.059.118-.118.118-.118.118h.178a.058.058,0,0,0,.059-.059h0v-.059c0-.059,0-.118-.059-.118h0l-.059-.059h0v-.059l-.059-.059h-.178a.058.058,0,0,0-.059-.059l-.059-.059h0l-.059-.059a.058.058,0,0,0-.059-.059h0a.058.058,0,0,0-.059-.059.058.058,0,0,1-.059-.059v-.178c.059.059.118.118.118.059.059,0,0-.118,0-.178v-.178l.414.474a.259.259,0,0,0,.178.059.207.207,0,0,0,.118-.059.257.257,0,0,0,.237.118.308.308,0,0,0,.237-.118.058.058,0,0,1,.059.059c.178.059.414-.118.474-.118h.059a.5.5,0,0,0,.474-.178l-.118-.118h0s-.355-.3-.888-.651c-.414-.3-.829-.651-1.007-.77a1.008,1.008,0,0,0-.059-.414c-.059-.178-.118-.237-.118-.3a.218.218,0,0,0,.059-.178h.059c.059.059.118.178.237.237s.118,0,.178.059.355.474.355.474h0a.183.183,0,0,1,.059.118h0l.059.059c.059,0,.059,0,.059-.059a1.1,1.1,0,0,1-.178-.237c-.059-.118-.118-.355-.178-.474h.118a.714.714,0,0,1,.3.3c0,.059,0,.118.118.3a1.319,1.319,0,0,0,.178.3h0a.127.127,0,0,0,.118.118c.059,0,0-.059-.059-.118a2.326,2.326,0,0,0-.118-.355c-.059-.178-.118-.414-.118-.414l-.059-.059h.059l.059.059h0a.789.789,0,0,1,.178.3c.059.118.059.3.118.474s.118.355.178.3a1.422,1.422,0,0,0-.118-.592,4.958,4.958,0,0,1-.118-.592h0a.733.733,0,0,1,.118.178c.059.118,0,.237.118.592a2.446,2.446,0,0,0,.237.533c.059.118-.059.474.059.533v-.77a3.037,3.037,0,0,0-.059-.592c-.059-.414-.059-.474-.059-.474h0a.648.648,0,0,1,.118.237c.059.3.059.71.118.829a.866.866,0,0,1,.118.237c.059.118-.059.77.059.77s.059-.829.059-1.066-.059-.947-.059-1.007h0a.449.449,0,0,1,.118.237h0a5.744,5.744,0,0,0,.059,1.006c0,.237.059.237.059.474,0,.178-.059.414-.059.474s0,.178.059.178,0-.118.059-.178c0-.059.059-.059.059-.118.059-.118.059-.829.118-1.184a2.544,2.544,0,0,0,.118-.71,3.236,3.236,0,0,0-.118-.71h.118a.058.058,0,0,0,.059-.059c0-.059-.059-.059-.178-.118l-.118-.237a5.721,5.721,0,0,0-.533-1.007,2.722,2.722,0,0,0-.947-.888h0a.058.058,0,0,1,.059-.059s.118-.118.059-.118H197.5c-.059,0-.118,0-.355-.178a3.45,3.45,0,0,0-1.717-.533c-.355,0-.474.118-.474.178h0v.059h-.118a.356.356,0,0,0-.237.059c-.474-.059-.533,0-.533.178h0a.217.217,0,0,0,.059.178c0,.059.059.059.118.059a.448.448,0,0,1,.237.059c.118,0,.178.059.3.178.118.059.118.178.178.237v.355c-.059-.059-.059-.118-.118-.178-.059-.118-.178-.237-.237-.237v-.118s0,.059-.118.059c-.059,0-.118-.059-.3-.118a.448.448,0,0,0-.237-.059h-.118a.453.453,0,0,0-.118-.3h0a.183.183,0,0,1-.059.118c0,.059-.118.118-.118.178a.612.612,0,0,0-.059-.237h0c0-.118-.059-.118-.059-.118h0v.059a3.339,3.339,0,0,1-.059.414.183.183,0,0,1-.118.059c.059-.059.059-.059.059-.178,0-.178-.118-.178-.118-.178h0v.237a.413.413,0,0,1-.118.237v-.118c0-.178-.059-.178-.059-.178h0a.458.458,0,0,1-.059.178c-.059.178-.118.178-.178.3-.178.178-.237.178-.237.237v.059h0v.118h0a.183.183,0,0,0-.118.059h0a1.2,1.2,0,0,1-.3.059c-.059,0-.118,0-.118-.059v-.118c.059,0,.059,0,.118-.059a.207.207,0,0,1,.118-.059.442.442,0,0,0,.178-.178h-.059a.207.207,0,0,1-.118.059.59.59,0,0,1-.237.059v-.059h0a.207.207,0,0,0,.059-.118l.059-.059c0-.059,0-.059.059-.118v-.059a.058.058,0,0,1,.059-.059.207.207,0,0,1,.059.118v.118c.118,0,.059-.3.059-.355h0v-.059l-.059-.059-.118.059h-.118c-.059,0-.414.3-.414.414s.059.178.059.237h0c0,.118,0,.474.178.533a1.176,1.176,0,0,0,.474,0h0c0,.059.059.059.118.118a.449.449,0,0,0,.237.118c.059,0,.059,0,.118-.059h0v.059h0c-.118.237-.355.355-.533.533-.118.059-.178.178-.3.3-.237.3-.3.414-.3.651v.059a.749.749,0,0,0,.3.651,1.227,1.227,0,0,0,.355.118h.533v.059a.058.058,0,0,1-.059.059h0a.058.058,0,0,1,.059-.059h-.3a.207.207,0,0,0-.118.059c0,.059-.059.059-.059.118h-.059a.058.058,0,0,0-.059.059.207.207,0,0,0-.059.118h-.059v.118h-.059c-.059,0-.059,0-.118-.059a.218.218,0,0,1-.059-.178.448.448,0,0,0-.059-.237c-.059-.118-.178-.178-.237-.3-.118-.059-.178-.178-.237-.237v-.059c0-.059.059-.118.059-.237v-.059c0-.059.059-.118.059-.178v-.118c0-.118-.118-.237-.237-.355-.059-.059-.118-.059-.178-.118h0a.058.058,0,0,0-.059-.059l-.059-.059h-.059a.058.058,0,0,1-.059.059h0V180.5l-.059-.059h-.059l-.059-.059h-.059a.058.058,0,0,1-.059.059h-.059l-.059.059h0c0,.059,0,.059.059.059h0v.059h.355v.059h.059c.059,0,.059,0,.059-.059h0a.058.058,0,0,1,.059.059c.059.059.059.059.059.118v.059c0,.059-.059.118-.059.237a.751.751,0,0,0-.059.355v.178c0,.059.059.118.059.178l.118.118a.591.591,0,0,1,.3.237c.059.118.059.237.118.355a.218.218,0,0,0,.059.178.127.127,0,0,0,.118.118c.059.059.118.059.237.059h.178c.059,0,.118,0,.118-.059a.148.148,0,0,1,.237,0h0c.059,0,.118-.059.178-.059a.207.207,0,0,0,.118-.059h.059l.059.059h.059a.058.058,0,0,0,.059-.059l.118-.118h0l.059.059h0a.207.207,0,0,0-.118.059h0a.648.648,0,0,0,.237.118,1.036,1.036,0,0,0,.3.059h0c-.059.059-.059.118,0,.118h0s.059.059.355,0c.237-.059.237-.059.237-.118h.059s.059.178.118.178c.118,0,.118-.3.118-.414a2.624,2.624,0,0,1,.3.355.207.207,0,0,0,.118.059h0l.118.237c.059.118.118.237.178.178.059,0,.059-.118.059-.118h0v-.059h0l.118.118h-.059c-.059,0-.059.059-.118.059a.058.058,0,0,0-.059.059h-.178l-.059-.059h0c-.059,0-.059,0-.118.059l-.059.059h-.118c-.059,0-.178.059-.178.118h0c-.059,0-.059-.059-.118-.059s-.059-.059-.118-.059v-.059a.207.207,0,0,0-.059-.118v.178h-.059v-.059a.058.058,0,0,0-.059-.059v.118h0c-.059,0-.118-.059-.178-.059s-.118-.059-.178-.059V183.4l-.118-.118a.07.07,0,1,1-.059.059.207.207,0,0,1,.059.118v.059a.207.207,0,0,0-.118.059c-.059,0-.059.059-.118.059l-.059-.059-.118-.059a324.987,324.987,0,0,1,.118.118h0c-.059.059-.059.118-.118.118l-.237-.237-.118-.118v-.3l.059.059h.059l.059-.059v-.059h.059l-.118-.118v.059h-.059v-.118a.058.058,0,0,1-.059-.059v-.059h0c.059,0,.059-.059.118-.059h0c0-.059-.059-.059-.059-.118h0c-.059,0-.059.059-.118.059h0v.059l.059.71h0l-.059.059-.059-.059h-.118l-.059.059v.059h0l.059.059h0a.217.217,0,0,0-.059.178h-.355l-.118-.059v.059h0a.308.308,0,0,0-.237.118,1.042,1.042,0,0,0-.059-.355c.059,0,.059-.118.059-.118a.058.058,0,0,0-.059.059h0c-.059-.059-.118-.178-.178-.237s-.178-.118-.237-.178v-.059a.207.207,0,0,0-.059-.118v.178c-.059,0-.118-.059-.178-.059h-.059a.217.217,0,0,0-.059-.178c-.059-.118-.118-.178-.237-.178h.118v-.178a.058.058,0,0,1-.059-.059v-.059c0-.059-.178,0-.178,0h.059a.058.058,0,0,0-.059.059h-.059v-.059h-.059v-.059l.059-.059v-.059l-.059-.059h-.059l-.059.059v.059C190.4,182.336,190.459,182.336,190.459,182.336Zm2.427,1.3Zm2.96-2.191Zm-2.96,1.066Zm1.954-3.138Zm-2.368,2.368h-.178c-.059,0-.059-.059-.118-.059a.356.356,0,0,1-.059-.237h0a.452.452,0,0,1,.118-.3,4.306,4.306,0,0,1,.533-.474,1.4,1.4,0,0,0,.355-.533v-.059a.452.452,0,0,0-.118-.3c.059,0,.118-.059.178-.059s.118-.059.178-.118l.059-.059v-.059h.059a.183.183,0,0,1,.059.118h0a.183.183,0,0,1-.059.118.082.082,0,0,1,0,.118l.059.059h0c0,.059-.118.118-.118.237-.059.118-.178.237-.118.237h.059v.059a1.19,1.19,0,0,0-.237.474c0,.178.059.118.059.3a1.562,1.562,0,0,1,.059.414h0a.183.183,0,0,0,.118-.059c0,.059.059.118.118.178a.88.88,0,0,0,.059.355,1.877,1.877,0,0,0,.3.355h0l-.059-.059a.058.058,0,0,0-.059-.059H193.6a.6.6,0,0,1,.059.178.851.851,0,0,1,.178.118c-.059,0-.178,0-.178.059a.058.058,0,0,0-.059.059.058.058,0,0,1-.059-.059v-.059h0v-.059h0v-.059h-.059c0-.059-.059-.059-.059-.118l-.118-.118h0a.856.856,0,0,0-.118-.414.435.435,0,0,0-.355-.118Zm.888.651Zm1.125-1.954Zm-.474-.533Zm.474.533Zm-.414-.533Zm0,0Zm-.178-.3Zm.059.178a.058.058,0,0,0-.059-.059Zm-.414.533Zm.71-1.184Zm-1.3.947Zm.059.059h0l.059.059h0A.058.058,0,0,0,193.005,180.146Zm.77-.3c-.059,0-.059.059-.118.059A.183.183,0,0,0,193.775,179.85Zm.77-.237Zm-.178.178Zm-1.3.414Zm.71,2.25Zm.829-2.96Zm1.125,2.072Zm0-.059Zm-2.783-2.191h0c.059,0,.118-.059.237-.059C193.064,179.258,193.064,179.317,192.946,179.317Zm-.474,1.6Zm3.2,2.783Zm-1.835-5.151Zm-1.954,3.908V182.4h0v.059Zm5.388-3.967-.059-.059h0C197.268,178.429,197.268,178.429,197.268,178.488Zm-4.381-.059Zm-.474.829Zm-.178,3.552Zm-1.362-1.835Zm2.842,2.96Zm-2.96-1.3Z" transform="translate(-189.512 -177.6)" fill="#006847"/>
      <path id="Trazado_184" data-name="Trazado 184" d="M278.4,239.2Z" transform="translate(-270.999 -234.641)" fill="#006847"/>
      <path id="Trazado_185" data-name="Trazado 185" d="M293.6,258.4Z" transform="translate(-285.074 -252.42)" fill="#006847"/>
      <path id="Trazado_186" data-name="Trazado 186" d="M231.2,185.6Z" transform="translate(-227.292 -185.008)" fill="#006847"/>
    </g>
    <g id="Grupo_66" data-name="Grupo 66" transform="translate(12.485 89.5)">
      <path id="SVGCleanerId_0_1_" d="M180.248,238.7h0v-.059a.207.207,0,0,0-.059.118v.118a.59.59,0,0,0-.059-.237l-.118-.237h0a1.1,1.1,0,0,0-.178.237,1.008,1.008,0,0,0-.059.414,1,1,0,0,0-.118-.3c-.118-.178-.178-.118-.178-.118h0s.118.118.059.237c0,.118-.059.355,0,.474a.817.817,0,0,0,.178.237v.237h0v.059l-.178-.118V239.7a.127.127,0,0,0-.118-.118c-.059,0-.118.118-.118.178a.127.127,0,0,0,.118.118h.059l.178.178a.207.207,0,0,1-.059.118h-.059a2.359,2.359,0,0,0-.178.237v-.237h0l-.355.178c-.178.178-.3.355-.237.474,0,.118.118.3.118.474v.3h0a.058.058,0,0,1-.059.059l-.237-.237.059-.059a.118.118,0,1,0-.118.118h0l.178.3c-.059.059-.059.059-.118.059a.934.934,0,0,0-.237.059,1.1,1.1,0,0,0-.237.178.259.259,0,0,0,.059-.178.346.346,0,0,0-.059-.237h0v.178a.058.058,0,0,1-.059.059c-.059.118-.474.355-.533.533s0,.178-.059.237c-.059.118-.118.178-.118.237l-.059.059a.058.058,0,0,0-.059.059l-.059-.237.059-.059a.118.118,0,1,0-.118.118h0v.3l-.059.059c0,.059-.059.059-.059.118h0c-.059,0-.118-.059-.178-.059h-.178a.207.207,0,0,1,.118-.059l.059-.059h0a1.2,1.2,0,0,0-.3-.059.564.564,0,0,0-.414.118c-.118.059-.178.237-.355.3a2.791,2.791,0,0,1-.3.118h-.059c-.118,0-.178-.059-.3-.059h-.237v-.118h-.414a.058.058,0,0,0-.059.059v.118c-.059,0-.118-.059-.237-.059a2.1,2.1,0,0,0-.414.059h-.059c-.118-.059-.118-.178-.178-.178s0,.178-.059.178-.178-.3-.355-.355c-.118,0-.178,0-.178.059s.178.237.118.237-.237-.3-.414-.3c-.118,0-.178.059-.118.059,0,.059.178.059.118.178s-.178-.178-.3-.118H172.2l-.059-.355a.058.058,0,0,0,.059-.059l.059-.059v-.059h-.118v-.059l-.059-.059a.058.058,0,0,0-.059.059v.118h-.059v.059h0c0,.059,0,.059.059.059h.118v.237l-.118-.118h0a.442.442,0,0,1-.178-.178c-.059-.118,0-.3-.059-.3s-.059.178-.118.118,0-.3-.059-.414-.178-.237-.237-.178,0,.3-.118.237c-.059-.059,0-.3,0-.414s-.059-.178-.118-.178,0,.237-.059.237-.059-.118-.118-.178h-.059s0-.118-.059-.118v.237a.207.207,0,0,0-.118-.059v-.3h.059l.059-.059h0a.058.058,0,0,0-.059-.059h-.059v-.118l-.059-.059a.058.058,0,0,0-.059.059v.118h-.059l-.059.059h0c0,.059,0,.059.059.059h.059v.237l-.178-.178a.612.612,0,0,1-.059-.237,2.686,2.686,0,0,1,.118-.474c-.059-.059-.118.178-.178.118s.059-.3,0-.414-.059-.178-.118-.178c-.118,0-.118.3-.178.3-.059-.059,0-.178,0-.3-.237-.237-.237-.237-.3-.237s-.059.178-.118.178l-.118-.118v-.237l.118-.3h.118l.059-.059V239.7l-.059-.059h0l.059-.059h0v-.118h0c-.059,0-.059,0-.118.059v.059h-.059a.058.058,0,0,0-.059.059v.059c0,.059,0,.059.059.118l-.118.178a.534.534,0,0,1-.059-.3c0-.118.059-.118.059-.178s-.059.059-.059-.059c0-.059.3-.237.237-.3s-.3.118-.237,0,.3-.118.3-.355c0-.118-.237.059-.237,0s.118-.178.118-.3c0-.059.059-.118,0-.118h-.059c-.118.059-.059.118-.178.118,0,0-.059-.118-.059-.059-.059,0-.118.118-.118.178v.237c-.059.059-.059-.118-.178-.118-.059,0-.118.118-.118.178s.178.237.118.3-.178-.178-.3-.059c-.059.118.237.3.3.3s0,.059.059.118.118.118.178.118a.452.452,0,0,1,.118.3l-.237-.118v-.118l-.059-.059H169l-.059.059-.059-.059h-.059a.058.058,0,0,0-.059.059h0c0,.059,0,.059.059.118h.059v.059a.058.058,0,0,0,.059.059H169c.059,0,.059,0,.118-.059l.3.237v.178h0v.059c-.059,0-.118-.059-.118,0s.118.118.059.178c0,0-.237-.059-.237,0s0,.178.118.178c.118.059.414.118.355.118-.059.059-.355-.178-.355,0s.118.237.178.237.355,0,.355.059-.237,0-.237.059c0,.118.178.118.178.118a.356.356,0,0,1,.237.059l.3.3h-.178c0-.059,0-.059-.059-.118l-.059-.059h-.059v.059h0v.059h-.118a.207.207,0,0,0,.118.059h0v.059l.059.059h0a.127.127,0,0,0,.118-.118h.3a.733.733,0,0,1,.178.118h-.178c0,.059.474.237.3.3-.118.059-.3-.118-.3,0-.059.118.118.237.178.237.059.059.474,0,.414.118s-.355-.059-.414.059a.38.38,0,0,0,.3.3c.118,0,.237-.178.3-.059s-.059.118,0,.178c.118,0,.178-.118.3-.059a.675.675,0,0,1,.355.178h-.237a.058.058,0,0,0-.059-.059l-.059-.059h-.059v.118h-.059l-.059.059a.058.058,0,0,0,.059.059h.118v.059h.059a.058.058,0,0,0,.059-.059v-.118h.3l.118.118a.292.292,0,0,0-.178.059c-.059,0-.118.118-.118.118v.059h.118l.059-.059a.058.058,0,0,0,.059.059c.059,0,.178-.118.3-.059s-.178.118-.118.237.237.059.3,0c.059,0,.178-.237.3-.118.059.118-.178.178-.118.3s.178.059.3.059c.059-.059.237-.3.3-.237.059.118-.118.178-.118.3.059.059.178,0,.237-.059s.118-.178.237-.237l.118-.059h0a.207.207,0,0,1,.118-.059.452.452,0,0,1,.3-.118c.059,0,.118,0,.118.059-.118.059-.3.118-.414.178a.817.817,0,0,0-.237.178h0a.148.148,0,0,0,.237,0,1.022,1.022,0,0,0,.237-.178.625.625,0,0,1,.3-.118v.118c0,.059-.118.059-.3.237a1.016,1.016,0,0,0-.237.355.207.207,0,0,1,.118-.059.207.207,0,0,0,.118-.059h.059c.059,0,.059.059.118.059l.059.059a.058.058,0,0,0,.059.059.442.442,0,0,1,.178-.178l.118-.118c0,.059.059.059.118.118s.178.059.237.118a.183.183,0,0,0,.118.059l.059-.059.059-.059h0l.059-.059h.178c.118,0,.118.059.118.059a2.362,2.362,0,0,0-.178-.237,1.971,1.971,0,0,0-.355-.178l-.118-.118h0v-.059a1,1,0,0,1,.3.118q.178.089.178.178a.207.207,0,0,0,.118.059c.059,0,.118-.059.059-.059h0a.654.654,0,0,0-.3-.237,2.328,2.328,0,0,0-.355-.118v-.059a1.471,1.471,0,0,1,.474.059l.355.178a1.047,1.047,0,0,0,.474.3c.237,0,.71-.3.829-.3a.59.59,0,0,1,.237-.059h0a.259.259,0,0,0-.178-.059.058.058,0,0,1-.059-.059h-.178s.118-.118.178-.118a.852.852,0,0,1,.178-.118h0l.118-.118.3.178h0v.059h0l.059.059h.059c.059,0,.059-.059.059-.118v-.059l-.059-.059h-.059l-.178-.178a.218.218,0,0,1,.178-.059,2.943,2.943,0,0,0,.947-.118.514.514,0,0,0,.237-.533.207.207,0,0,1,.059-.118h-.118a.207.207,0,0,0-.118.059.292.292,0,0,1,.059-.178v-.118h0c.059,0,.059,0,.118-.059l.237.059a.118.118,0,1,0,.118-.118c-.059,0-.059,0-.118.059l-.178-.059c0-.059.059-.059.118-.118a.207.207,0,0,1,.118-.059.585.585,0,0,0,.355-.118c.237-.118.355-.474.414-.651a.666.666,0,0,1,.237-.3h0s-.118-.059-.355.178v-.533h0v-.059l.355-.118.059.059a.118.118,0,1,0-.118-.118h-.3v-.059c0-.059.118-.118.178-.237.118-.118.414-.237.414-.533h0C180.425,238.814,180.307,238.755,180.248,238.7Zm-8.289,3.908Zm2.9,1.007Zm2.309-.355Zm1.6-1.362Z" transform="translate(-168.695 -238.4)" fill="#006847"/>
    </g>
    <path id="Trazado_187" data-name="Trazado 187" d="M178.4,264Z" transform="translate(-165.197 -172.605)" fill="#006847"/>
    <g id="Grupo_68" data-name="Grupo 68" transform="translate(17.11 85.593)">
      <path id="Trazado_191" data-name="Trazado 191" d="M278.4,239.2Z" transform="translate(-274.907 -235.233)" fill="#006847"/>
      <path id="Trazado_192" data-name="Trazado 192" d="M293.6,258.4Z" transform="translate(-288.982 -253.012)" fill="#006847"/>
      <path id="Trazado_193" data-name="Trazado 193" d="M231.2,185.6Z" transform="translate(-231.2 -185.6)" fill="#006847"/>
    </g>
  </g>
</svg>
