<svg xmlns="http://www.w3.org/2000/svg" width="36.574" height="24.144" viewBox="0 0 36.574 24.144">
  <g id="flag" transform="translate(0 -87.005)">
    <path id="Trazado_115" data-name="Trazado 115" d="M36.574,110.379a.772.772,0,0,1-.77.77H.77a.772.772,0,0,1-.77-.77v-22.6A.772.772,0,0,1,.77,87H35.8a.772.772,0,0,1,.77.77Z" fill="#fff7ee"/>
    <g id="Grupo_57" data-name="Grupo 57" transform="translate(0 87.005)">
      <path id="Trazado_116" data-name="Trazado 116" d="M230.22,87.006H209.372v2.322H230.99V87.776A.772.772,0,0,0,230.22,87.006Z" transform="translate(-194.416 -87.006)" fill="#e02424"/>
      <path id="Trazado_117" data-name="Trazado 117" d="M198.089,209.2v1.449a.873.873,0,0,1-.868.873h22.486V209.2H198.089Z" transform="translate(-183.133 -200.469)" fill="#e02424"/>
      <rect id="Rectángulo_115" data-name="Rectángulo 115" width="36.574" height="2.322" transform="translate(0 13.093)" fill="#e02424"/>
    </g>
    <rect id="Rectángulo_116" data-name="Rectángulo 116" width="2.348" height="2.322" transform="translate(0 100.098)" opacity="0.1"/>
    <g id="Grupo_58" data-name="Grupo 58" transform="translate(0 91.37)">
      <rect id="Rectángulo_117" data-name="Rectángulo 117" width="36.574" height="2.322" transform="translate(0 13.093)" fill="#e02424"/>
      <path id="Trazado_118" data-name="Trazado 118" d="M36.574,394.039v-1.552H0v1.552a.772.772,0,0,0,.77.77H35.8A.772.772,0,0,0,36.574,394.039Z" transform="translate(0 -375.03)" fill="#e02424"/>
      <rect id="Rectángulo_118" data-name="Rectángulo 118" width="21.618" height="2.322" transform="translate(14.956)" fill="#e02424"/>
    </g>
    <path id="Trazado_119" data-name="Trazado 119" d="M.77,87.006a.772.772,0,0,0-.77.77V98.057H14.909a.873.873,0,0,0,.868-.873V87.006Z" transform="translate(0 -0.001)" fill="#0853a4"/>
    <path id="Trazado_120" data-name="Trazado 120" d="M3.2,87.006H.77a.772.772,0,0,0-.77.77V98.057H2.425V87.776A.772.772,0,0,1,3.2,87.006Z" transform="translate(0 -0.001)" opacity="0.1"/>
    <g id="Grupo_59" data-name="Grupo 59" transform="translate(1.374 88.054)">
      <path id="Trazado_121" data-name="Trazado 121" d="M37.393,116.444a.107.107,0,0,1-.051-.013l-.21-.113-.21.113a.107.107,0,0,1-.051.013.108.108,0,0,1-.065-.022.114.114,0,0,1-.044-.11l.04-.24-.17-.17a.115.115,0,0,1-.028-.116.111.111,0,0,1,.089-.077l.235-.035.105-.218a.109.109,0,0,1,.2,0l.105.218.235.035a.111.111,0,0,1,.089.077.115.115,0,0,1-.028.116l-.17.17.04.24a.114.114,0,0,1-.044.11A.109.109,0,0,1,37.393,116.444Z" transform="translate(-35.358 -114.415)" fill="#fff"/>
      <path id="Trazado_122" data-name="Trazado 122" d="M37.393,143.864a.106.106,0,0,1-.051-.013l-.21-.113-.21.113a.106.106,0,0,1-.051.013.108.108,0,0,1-.065-.022.114.114,0,0,1-.044-.11l.04-.24-.17-.17a.115.115,0,0,1-.028-.116.111.111,0,0,1,.089-.077l.235-.035.105-.218a.109.109,0,0,1,.2,0l.105.218.235.035a.111.111,0,0,1,.089.077.115.115,0,0,1-.028.116l-.17.17.04.24a.114.114,0,0,1-.044.11A.108.108,0,0,1,37.393,143.864Z" transform="translate(-35.358 -139.877)" fill="#fff"/>
      <path id="Trazado_123" data-name="Trazado 123" d="M37.393,171.286a.108.108,0,0,1-.051-.013l-.21-.113-.21.113a.107.107,0,0,1-.051.013.109.109,0,0,1-.065-.021.114.114,0,0,1-.044-.11l.04-.24-.17-.169a.115.115,0,0,1-.028-.116.111.111,0,0,1,.089-.077l.235-.035.105-.218a.109.109,0,0,1,.2,0l.105.218.235.035a.111.111,0,0,1,.089.077.115.115,0,0,1-.028.116l-.17.169.04.24a.114.114,0,0,1-.044.11A.109.109,0,0,1,37.393,171.286Z" transform="translate(-35.358 -165.34)" fill="#fff"/>
      <path id="Trazado_124" data-name="Trazado 124" d="M37.393,198.7a.108.108,0,0,1-.051-.013l-.21-.113-.21.113a.107.107,0,0,1-.051.013.108.108,0,0,1-.065-.022.114.114,0,0,1-.044-.11l.04-.239-.17-.17a.115.115,0,0,1-.028-.116.111.111,0,0,1,.089-.077l.235-.035.105-.218a.109.109,0,0,1,.2,0l.105.218.235.035a.111.111,0,0,1,.089.077.115.115,0,0,1-.028.116l-.17.17.04.239a.114.114,0,0,1-.044.11A.108.108,0,0,1,37.393,198.7Z" transform="translate(-35.358 -190.799)" fill="#fff"/>
      <path id="Trazado_125" data-name="Trazado 125" d="M20.024,102.733a.106.106,0,0,1-.051-.013l-.21-.113-.21.113a.106.106,0,0,1-.051.013.108.108,0,0,1-.065-.022.114.114,0,0,1-.044-.11l.04-.24-.17-.17a.115.115,0,0,1-.028-.116.111.111,0,0,1,.089-.077l.235-.035.105-.218a.109.109,0,0,1,.2,0l.105.218L20.2,102a.111.111,0,0,1,.089.077.115.115,0,0,1-.028.116l-.17.17.04.24a.114.114,0,0,1-.044.11A.108.108,0,0,1,20.024,102.733Z" transform="translate(-19.23 -101.683)" fill="#fff"/>
      <path id="Trazado_126" data-name="Trazado 126" d="M20.024,130.154a.109.109,0,0,1-.051-.013l-.21-.113-.21.113a.109.109,0,0,1-.116-.009.114.114,0,0,1-.044-.11l.04-.24-.17-.17a.115.115,0,0,1-.028-.116.111.111,0,0,1,.089-.077l.235-.035.105-.218a.109.109,0,0,1,.2,0l.105.218.235.035a.111.111,0,0,1,.089.077.115.115,0,0,1-.028.116l-.17.17.04.24a.114.114,0,0,1-.044.11A.109.109,0,0,1,20.024,130.154Z" transform="translate(-19.23 -127.145)" fill="#fff"/>
      <path id="Trazado_127" data-name="Trazado 127" d="M20.024,157.574a.109.109,0,0,1-.051-.013l-.21-.113-.21.113a.109.109,0,0,1-.116-.009.114.114,0,0,1-.044-.11l.04-.24-.17-.17a.115.115,0,0,1-.028-.116.111.111,0,0,1,.089-.077l.235-.035.105-.218a.109.109,0,0,1,.2,0l.105.218.235.035a.111.111,0,0,1,.089.077.115.115,0,0,1-.028.116l-.17.17.04.24a.114.114,0,0,1-.044.11A.109.109,0,0,1,20.024,157.574Z" transform="translate(-19.23 -152.607)" fill="#fff"/>
      <path id="Trazado_128" data-name="Trazado 128" d="M20.024,184.994a.107.107,0,0,1-.051-.013l-.21-.113-.21.113a.109.109,0,0,1-.116-.009.114.114,0,0,1-.044-.11l.04-.24-.17-.17a.115.115,0,0,1-.028-.116.111.111,0,0,1,.089-.077l.235-.035.105-.218a.109.109,0,0,1,.2,0l.105.218.235.035a.111.111,0,0,1,.089.077.115.115,0,0,1-.028.116l-.17.17.04.24a.114.114,0,0,1-.044.11A.108.108,0,0,1,20.024,184.994Z" transform="translate(-19.23 -178.068)" fill="#fff"/>
      <path id="Trazado_129" data-name="Trazado 129" d="M20.024,212.414a.108.108,0,0,1-.051-.013l-.21-.113-.21.113a.109.109,0,0,1-.116-.009.114.114,0,0,1-.044-.11l.04-.24-.17-.169a.115.115,0,0,1-.028-.116.111.111,0,0,1,.089-.077l.235-.035.105-.218a.109.109,0,0,1,.2,0l.105.218.235.035a.111.111,0,0,1,.089.077.115.115,0,0,1-.028.116l-.17.169.04.24a.114.114,0,0,1-.044.11A.108.108,0,0,1,20.024,212.414Z" transform="translate(-19.23 -203.53)" fill="#fff"/>
      <path id="Trazado_130" data-name="Trazado 130" d="M71.108,116.444a.107.107,0,0,1-.051-.013l-.21-.113-.21.113a.107.107,0,0,1-.051.013.108.108,0,0,1-.065-.022.114.114,0,0,1-.044-.11l.04-.24-.17-.17a.115.115,0,0,1-.028-.116.111.111,0,0,1,.089-.077l.235-.035.1-.218a.109.109,0,0,1,.2,0l.105.218.235.035a.111.111,0,0,1,.089.077.115.115,0,0,1-.028.116l-.17.17.04.24a.114.114,0,0,1-.044.11A.108.108,0,0,1,71.108,116.444Z" transform="translate(-66.665 -114.415)" fill="#fff"/>
      <path id="Trazado_131" data-name="Trazado 131" d="M71.108,143.864a.106.106,0,0,1-.051-.013l-.21-.113-.21.113a.106.106,0,0,1-.051.013.108.108,0,0,1-.065-.022.114.114,0,0,1-.044-.11l.04-.24-.17-.17a.115.115,0,0,1-.028-.116.112.112,0,0,1,.089-.077l.235-.035.1-.218a.109.109,0,0,1,.2,0l.105.218.235.035a.111.111,0,0,1,.089.077.115.115,0,0,1-.028.116l-.17.17.04.24a.114.114,0,0,1-.044.11A.107.107,0,0,1,71.108,143.864Z" transform="translate(-66.665 -139.877)" fill="#fff"/>
      <path id="Trazado_132" data-name="Trazado 132" d="M71.108,171.286a.108.108,0,0,1-.051-.013l-.21-.113-.21.113a.107.107,0,0,1-.051.013.109.109,0,0,1-.065-.021.114.114,0,0,1-.044-.11l.04-.24-.17-.169a.115.115,0,0,1-.028-.116.111.111,0,0,1,.089-.077l.235-.035.1-.218a.109.109,0,0,1,.2,0l.105.218.235.035a.111.111,0,0,1,.089.077.115.115,0,0,1-.028.116l-.17.169.04.24a.114.114,0,0,1-.044.11A.108.108,0,0,1,71.108,171.286Z" transform="translate(-66.665 -165.34)" fill="#fff"/>
      <path id="Trazado_133" data-name="Trazado 133" d="M71.108,198.7a.108.108,0,0,1-.051-.013l-.21-.113-.21.113a.107.107,0,0,1-.051.013.108.108,0,0,1-.065-.022.114.114,0,0,1-.044-.11l.04-.239-.17-.17a.115.115,0,0,1-.028-.116.111.111,0,0,1,.089-.077l.235-.035.1-.218a.109.109,0,0,1,.2,0l.105.218.235.035a.111.111,0,0,1,.089.077.115.115,0,0,1-.028.116l-.17.17.04.239a.114.114,0,0,1-.044.11A.108.108,0,0,1,71.108,198.7Z" transform="translate(-66.665 -190.799)" fill="#fff"/>
      <path id="Trazado_134" data-name="Trazado 134" d="M53.741,102.733a.106.106,0,0,1-.051-.013l-.21-.113-.21.113a.106.106,0,0,1-.051.013.108.108,0,0,1-.065-.022.114.114,0,0,1-.044-.11l.04-.24-.17-.17a.115.115,0,0,1-.028-.116.111.111,0,0,1,.089-.077l.235-.035.1-.218a.109.109,0,0,1,.2,0l.105.218.235.035a.111.111,0,0,1,.089.077.115.115,0,0,1-.028.116l-.17.17.04.24a.114.114,0,0,1-.044.11A.109.109,0,0,1,53.741,102.733Z" transform="translate(-50.538 -101.683)" fill="#fff"/>
      <path id="Trazado_135" data-name="Trazado 135" d="M53.741,130.154a.109.109,0,0,1-.051-.013l-.21-.113-.21.113a.108.108,0,0,1-.051.013.109.109,0,0,1-.065-.022.114.114,0,0,1-.044-.11l.04-.24-.17-.17a.115.115,0,0,1-.028-.116.111.111,0,0,1,.089-.077l.235-.035.1-.218a.109.109,0,0,1,.2,0l.105.218.235.035a.111.111,0,0,1,.089.077.115.115,0,0,1-.028.116l-.17.17.04.24a.114.114,0,0,1-.044.11A.109.109,0,0,1,53.741,130.154Z" transform="translate(-50.538 -127.145)" fill="#fff"/>
      <path id="Trazado_136" data-name="Trazado 136" d="M53.741,157.574a.109.109,0,0,1-.051-.013l-.21-.113-.21.113a.109.109,0,0,1-.116-.009.114.114,0,0,1-.044-.11l.04-.24-.17-.17a.115.115,0,0,1-.028-.116.111.111,0,0,1,.089-.077l.235-.035.1-.218a.109.109,0,0,1,.2,0l.105.218.235.035a.111.111,0,0,1,.089.077.115.115,0,0,1-.028.116l-.17.17.04.24a.114.114,0,0,1-.044.11A.109.109,0,0,1,53.741,157.574Z" transform="translate(-50.538 -152.607)" fill="#fff"/>
      <path id="Trazado_137" data-name="Trazado 137" d="M53.741,184.994a.106.106,0,0,1-.051-.013l-.21-.113-.21.113a.107.107,0,0,1-.051.013.108.108,0,0,1-.065-.021.114.114,0,0,1-.044-.11l.04-.24-.17-.17a.115.115,0,0,1-.028-.116.111.111,0,0,1,.089-.077l.235-.035.1-.218a.109.109,0,0,1,.2,0l.105.218.235.035a.111.111,0,0,1,.089.077.115.115,0,0,1-.028.116l-.17.17.04.24a.114.114,0,0,1-.044.11A.108.108,0,0,1,53.741,184.994Z" transform="translate(-50.538 -178.068)" fill="#fff"/>
      <path id="Trazado_138" data-name="Trazado 138" d="M53.741,212.414a.108.108,0,0,1-.051-.013l-.21-.113-.21.113a.108.108,0,0,1-.116-.009.114.114,0,0,1-.044-.11l.04-.24-.17-.169a.115.115,0,0,1-.028-.116.111.111,0,0,1,.089-.077l.235-.035.1-.218a.109.109,0,0,1,.2,0l.105.218.235.035a.111.111,0,0,1,.089.077.115.115,0,0,1-.028.116l-.17.169.04.24a.114.114,0,0,1-.044.11A.108.108,0,0,1,53.741,212.414Z" transform="translate(-50.538 -203.53)" fill="#fff"/>
      <path id="Trazado_139" data-name="Trazado 139" d="M104.824,116.444a.107.107,0,0,1-.051-.013l-.21-.113-.21.113a.107.107,0,0,1-.051.013.108.108,0,0,1-.065-.022.114.114,0,0,1-.044-.11l.04-.24-.17-.17a.115.115,0,0,1-.028-.116.111.111,0,0,1,.089-.077l.235-.035.105-.218a.109.109,0,0,1,.2,0l.105.218.235.035a.111.111,0,0,1,.089.077.115.115,0,0,1-.028.116l-.17.17.04.24a.114.114,0,0,1-.044.11A.109.109,0,0,1,104.824,116.444Z" transform="translate(-97.972 -114.415)" fill="#fff"/>
      <path id="Trazado_140" data-name="Trazado 140" d="M104.824,143.864a.106.106,0,0,1-.051-.013l-.21-.113-.21.113a.106.106,0,0,1-.051.013.108.108,0,0,1-.065-.022.114.114,0,0,1-.044-.11l.04-.24-.17-.17a.115.115,0,0,1-.028-.116.111.111,0,0,1,.089-.077l.235-.035.105-.218a.109.109,0,0,1,.2,0l.105.218.235.035a.111.111,0,0,1,.089.077.115.115,0,0,1-.028.116l-.17.17.04.24a.114.114,0,0,1-.044.11A.108.108,0,0,1,104.824,143.864Z" transform="translate(-97.972 -139.877)" fill="#fff"/>
      <path id="Trazado_141" data-name="Trazado 141" d="M104.824,171.286a.108.108,0,0,1-.051-.013l-.21-.113-.21.113a.107.107,0,0,1-.051.013.109.109,0,0,1-.065-.021.114.114,0,0,1-.044-.11l.04-.24-.17-.169a.115.115,0,0,1-.028-.116.111.111,0,0,1,.089-.077l.235-.035.105-.218a.109.109,0,0,1,.2,0l.105.218.235.035a.111.111,0,0,1,.089.077.115.115,0,0,1-.028.116l-.17.169.04.24a.114.114,0,0,1-.044.11A.109.109,0,0,1,104.824,171.286Z" transform="translate(-97.972 -165.34)" fill="#fff"/>
      <path id="Trazado_142" data-name="Trazado 142" d="M104.824,198.7a.109.109,0,0,1-.051-.013l-.21-.113-.21.113a.108.108,0,0,1-.116-.009.114.114,0,0,1-.044-.11l.04-.239-.17-.17a.115.115,0,0,1-.028-.116.111.111,0,0,1,.089-.077l.235-.035.105-.218a.109.109,0,0,1,.2,0l.105.218.235.035a.111.111,0,0,1,.089.077.115.115,0,0,1-.028.116l-.17.17.04.239a.114.114,0,0,1-.044.11A.108.108,0,0,1,104.824,198.7Z" transform="translate(-97.972 -190.799)" fill="#fff"/>
      <path id="Trazado_143" data-name="Trazado 143" d="M87.455,102.733a.106.106,0,0,1-.051-.013l-.21-.113-.21.113a.106.106,0,0,1-.051.013.108.108,0,0,1-.065-.022.114.114,0,0,1-.044-.11l.04-.24-.17-.17a.115.115,0,0,1-.028-.116.111.111,0,0,1,.089-.077l.235-.035.1-.218a.109.109,0,0,1,.2,0l.105.218.235.035a.111.111,0,0,1,.089.077.115.115,0,0,1-.028.116l-.17.17.04.24a.114.114,0,0,1-.044.11A.108.108,0,0,1,87.455,102.733Z" transform="translate(-81.844 -101.683)" fill="#fff"/>
      <path id="Trazado_144" data-name="Trazado 144" d="M87.455,130.154a.109.109,0,0,1-.051-.013l-.21-.113-.21.113a.108.108,0,0,1-.051.013.109.109,0,0,1-.065-.022.114.114,0,0,1-.044-.11l.04-.24-.17-.17a.115.115,0,0,1-.028-.116.111.111,0,0,1,.089-.077l.235-.035.1-.218a.109.109,0,0,1,.2,0l.105.218.235.035a.111.111,0,0,1,.089.077.115.115,0,0,1-.028.116l-.17.17.04.24a.114.114,0,0,1-.044.11A.109.109,0,0,1,87.455,130.154Z" transform="translate(-81.844 -127.145)" fill="#fff"/>
      <path id="Trazado_145" data-name="Trazado 145" d="M87.455,157.574a.109.109,0,0,1-.051-.013l-.21-.113-.21.113a.109.109,0,0,1-.116-.009.114.114,0,0,1-.044-.11l.04-.24-.17-.17a.115.115,0,0,1-.028-.116.111.111,0,0,1,.089-.077l.235-.035.1-.218a.109.109,0,0,1,.2,0l.105.218.235.035a.111.111,0,0,1,.089.077.115.115,0,0,1-.028.116l-.17.17.04.24a.114.114,0,0,1-.044.11A.109.109,0,0,1,87.455,157.574Z" transform="translate(-81.844 -152.607)" fill="#fff"/>
      <path id="Trazado_146" data-name="Trazado 146" d="M87.455,184.994a.106.106,0,0,1-.051-.013l-.21-.113-.21.113a.107.107,0,0,1-.051.013.108.108,0,0,1-.065-.021.114.114,0,0,1-.044-.11l.04-.24-.17-.17a.115.115,0,0,1-.028-.116.111.111,0,0,1,.089-.077l.235-.035.1-.218a.109.109,0,0,1,.2,0l.105.218.235.035a.111.111,0,0,1,.089.077.115.115,0,0,1-.028.116l-.17.17.04.24a.114.114,0,0,1-.044.11A.108.108,0,0,1,87.455,184.994Z" transform="translate(-81.844 -178.068)" fill="#fff"/>
      <path id="Trazado_147" data-name="Trazado 147" d="M87.455,212.414a.108.108,0,0,1-.051-.013l-.21-.113-.21.113a.108.108,0,0,1-.116-.009.114.114,0,0,1-.044-.11l.04-.24-.17-.169a.115.115,0,0,1-.028-.116.111.111,0,0,1,.089-.077l.235-.035.1-.218a.109.109,0,0,1,.2,0l.105.218.235.035a.111.111,0,0,1,.089.077.115.115,0,0,1-.028.116l-.17.169.04.24a.114.114,0,0,1-.044.11A.107.107,0,0,1,87.455,212.414Z" transform="translate(-81.844 -203.53)" fill="#fff"/>
      <path id="Trazado_148" data-name="Trazado 148" d="M138.538,116.444a.107.107,0,0,1-.051-.013l-.21-.113-.21.113a.108.108,0,0,1-.116-.009.114.114,0,0,1-.044-.11l.04-.24-.17-.17a.115.115,0,0,1-.028-.116.111.111,0,0,1,.089-.077l.235-.035.105-.218a.109.109,0,0,1,.2,0l.105.218.235.035a.111.111,0,0,1,.089.077.115.115,0,0,1-.028.116l-.17.17.04.24a.114.114,0,0,1-.044.11A.107.107,0,0,1,138.538,116.444Z" transform="translate(-129.278 -114.415)" fill="#fff"/>
      <path id="Trazado_149" data-name="Trazado 149" d="M138.538,143.864a.106.106,0,0,1-.051-.013l-.21-.113-.21.113a.107.107,0,0,1-.051.013.108.108,0,0,1-.065-.022.114.114,0,0,1-.044-.11l.04-.24-.17-.17a.115.115,0,0,1-.028-.116.111.111,0,0,1,.089-.077l.235-.035.105-.218a.109.109,0,0,1,.2,0l.105.218.235.035a.111.111,0,0,1,.089.077.114.114,0,0,1-.028.116l-.17.17.04.24a.114.114,0,0,1-.044.11A.106.106,0,0,1,138.538,143.864Z" transform="translate(-129.278 -139.877)" fill="#fff"/>
      <path id="Trazado_150" data-name="Trazado 150" d="M138.538,171.286a.108.108,0,0,1-.051-.013l-.21-.113-.21.113a.107.107,0,0,1-.051.013.109.109,0,0,1-.065-.021.114.114,0,0,1-.044-.11l.04-.24-.17-.169a.115.115,0,0,1-.028-.116.111.111,0,0,1,.089-.077l.235-.035.105-.218a.109.109,0,0,1,.2,0l.105.218.235.035a.111.111,0,0,1,.089.077.115.115,0,0,1-.028.116l-.17.169.04.24a.114.114,0,0,1-.044.11A.107.107,0,0,1,138.538,171.286Z" transform="translate(-129.278 -165.34)" fill="#fff"/>
      <path id="Trazado_151" data-name="Trazado 151" d="M138.538,198.7a.108.108,0,0,1-.051-.013l-.21-.113-.21.113a.108.108,0,0,1-.116-.009.114.114,0,0,1-.044-.11l.04-.239-.17-.17a.115.115,0,0,1-.028-.116.111.111,0,0,1,.089-.077l.235-.035.105-.218a.109.109,0,0,1,.2,0l.105.218.235.035a.111.111,0,0,1,.089.077.115.115,0,0,1-.028.116l-.17.17.04.239a.114.114,0,0,1-.044.11A.106.106,0,0,1,138.538,198.7Z" transform="translate(-129.278 -190.799)" fill="#fff"/>
      <path id="Trazado_152" data-name="Trazado 152" d="M121.17,102.733a.106.106,0,0,1-.051-.013l-.21-.113-.21.113a.106.106,0,0,1-.051.013.109.109,0,0,1-.065-.022.114.114,0,0,1-.044-.11l.04-.24-.17-.17a.115.115,0,0,1-.028-.116.111.111,0,0,1,.089-.077l.235-.035.1-.218a.109.109,0,0,1,.2,0l.105.218.235.035a.111.111,0,0,1,.089.077.115.115,0,0,1-.028.116l-.17.17.04.24a.114.114,0,0,1-.044.11A.108.108,0,0,1,121.17,102.733Z" transform="translate(-113.151 -101.683)" fill="#fff"/>
      <path id="Trazado_153" data-name="Trazado 153" d="M121.17,130.154a.11.11,0,0,1-.051-.013l-.21-.113-.21.113a.108.108,0,0,1-.051.013.11.11,0,0,1-.065-.022.114.114,0,0,1-.044-.11l.04-.24-.17-.17a.115.115,0,0,1-.028-.116.111.111,0,0,1,.089-.077l.235-.035.1-.218a.109.109,0,0,1,.2,0l.105.218.235.035a.111.111,0,0,1,.089.077.115.115,0,0,1-.028.116l-.17.17.04.24a.114.114,0,0,1-.044.11A.109.109,0,0,1,121.17,130.154Z" transform="translate(-113.151 -127.145)" fill="#fff"/>
      <path id="Trazado_154" data-name="Trazado 154" d="M121.17,157.574a.11.11,0,0,1-.051-.013l-.21-.113-.21.113a.109.109,0,0,1-.116-.009.114.114,0,0,1-.044-.11l.04-.24-.17-.17a.115.115,0,0,1-.028-.116.111.111,0,0,1,.089-.077l.235-.035.1-.218a.109.109,0,0,1,.2,0l.105.218.235.035a.111.111,0,0,1,.089.077.115.115,0,0,1-.028.116l-.17.17.04.24a.114.114,0,0,1-.044.11A.109.109,0,0,1,121.17,157.574Z" transform="translate(-113.151 -152.607)" fill="#fff"/>
      <path id="Trazado_155" data-name="Trazado 155" d="M121.17,184.994a.107.107,0,0,1-.051-.013l-.21-.113-.21.113a.107.107,0,0,1-.051.013.109.109,0,0,1-.065-.021.114.114,0,0,1-.044-.11l.04-.24-.17-.17a.115.115,0,0,1-.028-.116.111.111,0,0,1,.089-.077l.235-.035.1-.218a.109.109,0,0,1,.2,0l.105.218.235.035a.111.111,0,0,1,.089.077.115.115,0,0,1-.028.116l-.17.17.04.24a.114.114,0,0,1-.044.11A.108.108,0,0,1,121.17,184.994Z" transform="translate(-113.151 -178.068)" fill="#fff"/>
      <path id="Trazado_156" data-name="Trazado 156" d="M121.17,212.414a.109.109,0,0,1-.051-.013l-.21-.113-.21.113a.108.108,0,0,1-.116-.009.114.114,0,0,1-.044-.11l.04-.24-.17-.169a.115.115,0,0,1-.028-.116.111.111,0,0,1,.089-.077l.235-.035.1-.218a.109.109,0,0,1,.2,0l.105.218.235.035a.111.111,0,0,1,.089.077.115.115,0,0,1-.028.116l-.17.169.04.24a.114.114,0,0,1-.044.11A.107.107,0,0,1,121.17,212.414Z" transform="translate(-113.151 -203.53)" fill="#fff"/>
      <path id="Trazado_157" data-name="Trazado 157" d="M172.255,116.444a.107.107,0,0,1-.051-.013l-.21-.113-.21.113a.108.108,0,0,1-.116-.009.113.113,0,0,1-.044-.11l.04-.24-.17-.17a.115.115,0,0,1-.028-.116.111.111,0,0,1,.089-.077l.235-.035.1-.218a.109.109,0,0,1,.2,0l.105.218.235.035a.11.11,0,0,1,.089.077.115.115,0,0,1-.028.116l-.17.17.04.24a.114.114,0,0,1-.044.11A.108.108,0,0,1,172.255,116.444Z" transform="translate(-160.586 -114.415)" fill="#fff"/>
      <path id="Trazado_158" data-name="Trazado 158" d="M172.255,143.864a.106.106,0,0,1-.051-.013l-.21-.113-.21.113a.108.108,0,0,1-.116-.009.113.113,0,0,1-.044-.11l.04-.24-.17-.17a.115.115,0,0,1-.028-.116.112.112,0,0,1,.089-.077l.235-.035.1-.218a.109.109,0,0,1,.2,0l.105.218.235.035a.111.111,0,0,1,.089.077.115.115,0,0,1-.028.116l-.17.17.04.24a.114.114,0,0,1-.044.11A.107.107,0,0,1,172.255,143.864Z" transform="translate(-160.586 -139.877)" fill="#fff"/>
      <path id="Trazado_159" data-name="Trazado 159" d="M172.255,171.286a.108.108,0,0,1-.051-.013l-.21-.113-.21.113a.108.108,0,0,1-.116-.009.113.113,0,0,1-.044-.11l.04-.24-.17-.169a.115.115,0,0,1-.028-.116.111.111,0,0,1,.089-.077l.235-.035.1-.218a.109.109,0,0,1,.2,0l.105.218.235.035a.111.111,0,0,1,.089.077.115.115,0,0,1-.028.116l-.17.169.04.24a.114.114,0,0,1-.044.11A.108.108,0,0,1,172.255,171.286Z" transform="translate(-160.586 -165.34)" fill="#fff"/>
      <path id="Trazado_160" data-name="Trazado 160" d="M172.255,198.7a.109.109,0,0,1-.051-.013l-.21-.113-.21.113a.108.108,0,0,1-.116-.009.113.113,0,0,1-.044-.11l.04-.239-.17-.17a.115.115,0,0,1-.028-.116.111.111,0,0,1,.089-.077l.235-.035.1-.218a.109.109,0,0,1,.2,0l.105.218.235.035a.111.111,0,0,1,.089.077.115.115,0,0,1-.028.116l-.17.17.04.239a.114.114,0,0,1-.044.11A.107.107,0,0,1,172.255,198.7Z" transform="translate(-160.586 -190.799)" fill="#fff"/>
      <path id="Trazado_161" data-name="Trazado 161" d="M154.887,102.733a.105.105,0,0,1-.051-.013l-.21-.113-.21.113a.106.106,0,0,1-.051.013.108.108,0,0,1-.065-.022.114.114,0,0,1-.044-.11l.04-.24-.17-.17a.115.115,0,0,1-.028-.116.111.111,0,0,1,.089-.077l.235-.035.105-.218a.109.109,0,0,1,.2,0l.105.218.235.035a.111.111,0,0,1,.089.077.115.115,0,0,1-.028.116l-.17.17.04.24a.114.114,0,0,1-.044.11A.109.109,0,0,1,154.887,102.733Z" transform="translate(-144.459 -101.683)" fill="#fff"/>
      <path id="Trazado_162" data-name="Trazado 162" d="M154.887,130.154a.109.109,0,0,1-.051-.013l-.21-.113-.21.113a.108.108,0,0,1-.051.013.109.109,0,0,1-.065-.022.114.114,0,0,1-.044-.11l.04-.24-.17-.17a.115.115,0,0,1-.028-.116.111.111,0,0,1,.089-.077l.235-.035.105-.218a.109.109,0,0,1,.2,0l.105.218.235.035a.111.111,0,0,1,.089.077.115.115,0,0,1-.028.116l-.17.17.04.24a.114.114,0,0,1-.044.11A.109.109,0,0,1,154.887,130.154Z" transform="translate(-144.459 -127.145)" fill="#fff"/>
      <path id="Trazado_163" data-name="Trazado 163" d="M154.887,157.574a.109.109,0,0,1-.051-.013l-.21-.113-.21.113a.109.109,0,0,1-.116-.009.114.114,0,0,1-.044-.11l.04-.24-.17-.17a.115.115,0,0,1-.028-.116.111.111,0,0,1,.089-.077l.235-.035.105-.218a.109.109,0,0,1,.2,0l.105.218.235.035a.111.111,0,0,1,.089.077.115.115,0,0,1-.028.116l-.17.17.04.24a.114.114,0,0,1-.044.11A.109.109,0,0,1,154.887,157.574Z" transform="translate(-144.459 -152.607)" fill="#fff"/>
      <path id="Trazado_164" data-name="Trazado 164" d="M154.887,184.994a.106.106,0,0,1-.051-.013l-.21-.113-.21.113a.108.108,0,0,1-.116-.009.114.114,0,0,1-.044-.11l.04-.24-.17-.17a.115.115,0,0,1-.028-.116.111.111,0,0,1,.089-.077l.235-.035.105-.218a.109.109,0,0,1,.2,0l.105.218.235.035a.111.111,0,0,1,.089.077.115.115,0,0,1-.028.116l-.17.17.04.24a.114.114,0,0,1-.044.11A.108.108,0,0,1,154.887,184.994Z" transform="translate(-144.459 -178.068)" fill="#fff"/>
      <path id="Trazado_165" data-name="Trazado 165" d="M154.887,212.414a.108.108,0,0,1-.051-.013l-.21-.113-.21.113a.108.108,0,0,1-.116-.009.114.114,0,0,1-.044-.11l.04-.24-.17-.169a.115.115,0,0,1-.028-.116.111.111,0,0,1,.089-.077l.235-.035.105-.218a.109.109,0,0,1,.2,0l.105.218.235.035a.111.111,0,0,1,.089.077.115.115,0,0,1-.028.116l-.17.169.04.24a.114.114,0,0,1-.044.11A.108.108,0,0,1,154.887,212.414Z" transform="translate(-144.459 -203.53)" fill="#fff"/>
      <path id="Trazado_166" data-name="Trazado 166" d="M188.6,102.733a.105.105,0,0,1-.051-.013l-.21-.113-.21.113a.107.107,0,0,1-.051.013.109.109,0,0,1-.065-.022.114.114,0,0,1-.044-.11l.04-.24-.17-.17a.115.115,0,0,1-.028-.116A.111.111,0,0,1,187.9,102l.235-.035.1-.218a.109.109,0,0,1,.2,0l.105.218.235.035a.111.111,0,0,1,.089.077.115.115,0,0,1-.028.116l-.17.17.04.24a.114.114,0,0,1-.044.11A.108.108,0,0,1,188.6,102.733Z" transform="translate(-175.765 -101.683)" fill="#fff"/>
      <path id="Trazado_167" data-name="Trazado 167" d="M188.6,130.154a.109.109,0,0,1-.051-.013l-.21-.113-.21.113a.108.108,0,0,1-.051.013.11.11,0,0,1-.065-.022.114.114,0,0,1-.044-.11l.04-.24-.17-.17a.115.115,0,0,1-.028-.116.111.111,0,0,1,.089-.077l.235-.035.1-.218a.109.109,0,0,1,.2,0l.105.218.235.035a.111.111,0,0,1,.089.077.115.115,0,0,1-.028.116l-.17.17.04.24a.115.115,0,0,1-.044.11A.108.108,0,0,1,188.6,130.154Z" transform="translate(-175.765 -127.145)" fill="#fff"/>
      <path id="Trazado_168" data-name="Trazado 168" d="M188.6,157.574a.109.109,0,0,1-.051-.013l-.21-.113-.21.113a.109.109,0,0,1-.116-.009.114.114,0,0,1-.044-.11l.04-.24-.17-.17a.115.115,0,0,1-.028-.116.111.111,0,0,1,.089-.077l.235-.035.1-.218a.109.109,0,0,1,.2,0l.105.218.235.035a.111.111,0,0,1,.089.077.114.114,0,0,1-.028.116l-.17.17.04.24a.114.114,0,0,1-.044.11A.108.108,0,0,1,188.6,157.574Z" transform="translate(-175.765 -152.607)" fill="#fff"/>
      <path id="Trazado_169" data-name="Trazado 169" d="M188.6,184.994a.106.106,0,0,1-.051-.013l-.21-.113-.21.113a.107.107,0,0,1-.051.013.109.109,0,0,1-.065-.021.114.114,0,0,1-.044-.11l.04-.24-.17-.17a.115.115,0,0,1-.028-.116.111.111,0,0,1,.089-.077l.235-.035.1-.218a.109.109,0,0,1,.2,0l.105.218.235.035a.111.111,0,0,1,.089.077.115.115,0,0,1-.028.116l-.17.17.04.24a.115.115,0,0,1-.044.11A.107.107,0,0,1,188.6,184.994Z" transform="translate(-175.765 -178.068)" fill="#fff"/>
      <path id="Trazado_170" data-name="Trazado 170" d="M188.6,212.414a.108.108,0,0,1-.051-.013l-.21-.113-.21.113a.109.109,0,0,1-.116-.009.114.114,0,0,1-.044-.11l.04-.24-.17-.169a.115.115,0,0,1-.028-.116.111.111,0,0,1,.089-.077l.235-.035.1-.218a.109.109,0,0,1,.2,0l.105.218.235.035a.111.111,0,0,1,.089.077.115.115,0,0,1-.028.116l-.17.169.04.24a.114.114,0,0,1-.044.11A.107.107,0,0,1,188.6,212.414Z" transform="translate(-175.765 -203.53)" fill="#fff"/>
    </g>
    <rect id="Rectángulo_119" data-name="Rectángulo 119" width="2.348" height="2.322" transform="translate(0 104.462)" opacity="0.1"/>
    <path id="Trazado_171" data-name="Trazado 171" d="M2.348,394.039v-1.552H0v1.552a.772.772,0,0,0,.77.77H3.118A.772.772,0,0,1,2.348,394.039Z" transform="translate(0 -283.66)" opacity="0.1"/>
  </g>
</svg>
